<?xml version="1.0" encoding="UTF-8"?>
<svg fill="none" viewBox="0 0 388 206" xmlns="http://www.w3.org/2000/svg">
<path d="m193.98 109.45-37.817-20.092 12.934-6.8171 14.561 7.7326 12.219-6.4411-14.562-7.7325 12.934-6.8334 37.817 20.092-12.934 6.817-13.757-7.3074-12.235 6.4573 13.774 7.3076-12.934 6.817z" fill="#000"/>
<path d="m193.98 69.482-37.817-20.092 12.933-6.817 14.562 7.7325 12.218-6.4411-14.562-7.7325 12.934-6.8334 37.817 20.092-12.933 6.817-13.757-7.3074-12.236 6.4574 13.774 7.3074-12.933 6.8171z" fill="url(#a)"/>
<path d="m37.875 174.91h9.8707v-9.836h16.162v9.836h9.8359v-25.859h-9.8359v9.141h-16.162v-9.141h-9.8707v25.859z" fill="#000"/>
<path d="m90.598 174.91h9.8705v-9.662l13.833-16.197h-10.809l-7.6811 8.933-7.5421-8.933h-11.817l14.146 16.127v9.732z" fill="#000"/>
<path d="m117.01 174.91h18.386c15.397 0 18.629-6.708 18.629-12.582v-1.043c0-6.082-3.753-12.234-18.664-12.234h-18.351v25.859zm9.871-19.081h7.333c8.62 0 9.558 3.719 9.558 5.978v0.208c0 2.259-0.938 6.048-9.558 6.048h-7.333v-12.234z" fill="#000"/>
<path d="m167.99 155.34h11.33c2.225 0 2.989 0.973 2.989 2.19v0.035c0 1.251-0.799 2.224-2.989 2.224h-11.33v-4.449zm0 10.705h9.453c3.893 0 5.249 1.529 5.249 4.484v3.023c0 0.73 0.069 1.078 0.312 1.356h10.08v-0.174c-0.244-0.452-0.487-1.112-0.487-2.919v-3.824c0-3.336-2.12-5.422-5.318-6.151 1.947-0.452 5.214-2.016 5.214-5.77v-0.382c0-4.206-3.337-6.639-10.879-6.639h-23.495v25.859h9.871v-8.863z" fill="#000"/>
<path d="m214.92 148.57c-16.753 0-18.873 7.959-18.873 12.825v1.042c0 4.831 2.12 12.964 18.873 12.964h1.564c16.717 0 18.837-8.133 18.837-12.964v-1.042c0-4.866-2.155-12.825-18.837-12.825h-1.564zm10.183 13.555c0 2.78-1.773 6.29-9.419 6.29s-9.419-3.649-9.419-6.36v-0.417c0-2.746 1.634-6.117 9.419-6.117 7.646 0 9.419 3.371 9.419 6.117v0.487z" fill="#000"/>
<path d="m256.9 175.4c8.064 0 11.296-2.954 12.304-4.066 0.486 0.938 1.043 2.746 1.216 3.58h6.222v-14.563h-19.151v5.04h9.071c0 0.834-2.154 3.232-8.828 3.232-6.395 0-8.862-3.232-8.862-6.534v-0.382c0-3.407 1.981-6.396 8.932-6.396 7.299 0 8.202 2.607 8.376 3.267h10.288v-0.034c-0.139-3.615-2.294-9.975-18.143-9.975h-1.355c-15.258 0-18.317 7.264-18.317 12.825v0.973c0 5.457 3.302 13.033 17.448 13.033h0.799z" fill="#000"/>
<path d="m281.55 149.05v25.859h28.882v-6.465h-19.151v-3.545h18.49v-6.291h-18.49v-3.232h18.873v-6.326h-28.604z" fill="#000"/>
<path d="m315.02 149.05v25.859h9.801v-15.675l16.196 15.675h9.871v-25.859h-9.801v14.702l-15.015-14.702h-11.052z" fill="#000"/>
<defs>
<linearGradient id="a" x1="230.64" x2="174.89" y1="50.952" y2="80.993" gradientUnits="userSpaceOnUse">
<stop stop-color="#430470" offset=".0022437"/>
<stop stop-color="#8E01F0" offset=".38547"/>
<stop stop-color="#354CF6" offset=".63547"/>
<stop stop-color="#01FFFF" offset="1"/>
</linearGradient>
</defs>
</svg>
